# xmcd
#
# Track frame offsets:
#	150
#	26822
#	48973
#	88572
#	107597
#	158472
#	185172
#	233607
#	267057
#
# Disc length: 3785 seconds
#
# Revision: 1
# Processed by: cddbd v1.4b42PL0 Copyright (c) Steve Scherf et al.
# Submitted via: audiograbber 1.80
#
DISCID=650ec709
DTITLE=Rhett Tyler and Early Warning - Live at Manny's Car Wash - Disk 1
DYEAR=1900
DGENRE=
TTITLE0=Get Tough
TTITLE1=Keep Your Business To Yourself
TTITLE2=Cold Wind Blowin'
TTITLE3=Be Careful With a Fool
TTITLE4=Crossroads
TTITLE5=Barefoot Rock
TTITLE6=Build Me a Levee
TTITLE7=Power of the Blues
TTITLE8=Slow Down Baby
EXTD=
EXTT0=
EXTT1=
EXTT2=
EXTT3=
EXTT4=
EXTT5=
EXTT6=
EXTT7=
EXTT8=
PLAYORDER=
